# xmcd
#
# Track frame offsets:
#  150
#  15082
#  33615
#  48767
#  67125
#  79187
#  93477
#  109385
#  125702
#  144670
#  163127
#  180822
#
# Disc length: 2627 seconds
#
# Revision: 0
# Processed by: cddbd v1.5.1PL0 Copyright (c) Steve Scherf et al.
# Submitted via: AltoMP3_Maker 3.0
#
DISCID=9e0a410c
DTITLE=Frank Rose - This is Now that was Then
DYEAR=1900
DGENRE=
TTITLE0=Tennessee Rain
TTITLE1=Every Rose has it's Thorn
TTITLE2=GoodBye
TTITLE3=Malibu Moon
TTITLE4=Welcome to Hollywood
TTITLE5=Angle Eyes
TTITLE6=This is now That was Then
TTITLE7=Molly McNeal
TTITLE8=Abilene
TTITLE9=Old Man on the Lake
TTITLE10=Man I Used to Be
TTITLE11=Shoulder To Cry On
EXTD=
EXTT0=
EXTT1=
EXTT2=
EXTT3=
EXTT4=
EXTT5=
EXTT6=
EXTT7=
EXTT8=
EXTT9=
EXTT10=
EXTT11=
PLAYORDER=
